HIERARCHY
ROOT Hips
{
	OFFSET 0.000000 0.000000 0.000000
	CHANNELS 6 Xposition Yposition Zposition Zrotation Yrotation Xrotation 
	JOINT LHipJoint
	{
		OFFSET 0.000000 0.000000 0.000000
		CHANNELS 3 Zrotation Yrotation Xrotation
		JOINT LeftUpLeg
		{
			OFFSET 1.363060 -1.794630 0.839290
			CHANNELS 3 Zrotation Yrotation Xrotation
			JOINT LeftLeg
			{
				OFFSET 2.448110 -6.726130 0.000000
				CHANNELS 3 Zrotation Yrotation Xrotation
				JOINT LeftFoot
				{
					OFFSET 2.562200 -7.039590 0.000000
					CHANNELS 3 Zrotation Yrotation Xrotation
					JOINT LeftToeBase
					{
						OFFSET 0.157640 -0.433110 2.322550
						CHANNELS 3 Zrotation Yrotation Xrotation
						End Site
						{
							OFFSET 0.000000 0.000000 0.000000
						}
					}
				}
			}
		}
	}
	JOINT RHipJoint
	{
		OFFSET 0.000000 0.000000 0.000000
		CHANNELS 3 Zrotation Yrotation Xrotation
		JOINT RightUpLeg
		{
			OFFSET -1.305520 -1.794630 0.839290
			CHANNELS 3 Zrotation Yrotation Xrotation
			JOINT RightLeg
			{
				OFFSET -2.542530 -6.985550 0.000000
				CHANNELS 3 Zrotation Yrotation Xrotation
				JOINT RightFoot
				{
					OFFSET -2.568260 -7.056230 0.000000
					CHANNELS 3 Zrotation Yrotation Xrotation
					JOINT RightToeBase
					{
						OFFSET -0.164730 -0.452590 2.363150
						CHANNELS 3 Zrotation Yrotation Xrotation
						End Site
						{
							OFFSET 0.000000 0.000000 0.000000
						}
					}
				}
			}
		}
	}
}
MOTION
Frames: 27
Frame Time: 0.008333
2.722566 16.871328 3.121115 -46.039394 -53.529536 42.320808 -14.236893 -3.608487 -1.002937 15.884030 -16.133735 -12.278448 0.827225 2.403856 40.659357 1.743231 9.022603 -17.241576 -1.558300 -0.000000 -43.755400 2.813961 5.800454 -1.786322 8.411105 -10.551789 -137.286033 -6.259115 -10.786237 109.730687 -1.116182 -1.028194 -25.300149 0.783500 0.000000 -66.948299
2.735115 16.842045 3.115359 -45.757241 -53.577166 42.143894 -14.263400 -3.657906 -1.089860 15.761379 -16.083664 -12.695810 0.789472 2.458073 41.324047 1.723555 8.907465 -17.538259 -1.589100 0.000001 -43.884700 2.793850 5.798791 -1.705836 8.144049 -10.798248 -137.193214 -5.847779 -10.689315 107.822290 -1.291052 -2.032488 -25.026758 1.029501 0.000000 -65.899200
2.749940 16.811973 3.111129 -45.486949 -53.643104 42.018527 -14.296628 -3.707497 -1.170394 15.643036 -16.055184 -13.168385 0.754108 2.515383 42.007920 1.709239 8.829587 -17.831918 -1.623699 0.000000 -43.999300 2.784686 5.789362 -1.597331 7.806116 -11.107649 -136.855347 -5.350067 -10.552924 105.394177 -1.509581 -3.295863 -24.540841 1.303900 0.000000 -64.482101
2.767598 16.781323 3.108274 -45.245855 -53.737403 41.955748 -14.337388 -3.759856 -1.251657 15.527189 -16.049007 -13.671787 0.721343 2.577410 42.700216 1.702145 8.800867 -18.120117 -1.664000 0.000000 -44.074999 2.787087 5.771800 -1.459879 7.385117 -11.473252 -136.236443 -4.755331 -10.371452 102.366579 -1.766965 -4.743918 -23.891370 1.572900 -0.000000 -62.729000
2.788601 16.750404 3.106547 -45.048259 -53.873808 41.963222 -14.384557 -3.817444 -1.341912 15.405812 -16.060355 -14.181501 0.691039 2.644995 43.388233 1.703642 8.830483 -18.398487 -1.711700 -0.000001 -44.095200 2.802871 5.745391 -1.290606 6.867952 -11.878249 -135.308986 -4.057640 -10.138283 98.666920 -2.053881 -6.273087 -23.152059 1.804101 -0.000000 -60.715901
2.813515 16.719726 3.105503 -44.898630 -54.071427 42.043966 -14.433205 -3.881879 -1.448199 15.259271 -16.092144 -14.678548 0.663367 2.717611 44.060250 1.716659 8.938019 -18.659828 -1.770200 -0.000000 -44.045800 2.836939 5.708666 -1.081301 6.231886 -12.296526 -134.052652 -3.256191 -9.843935 94.223629 -2.358102 -7.765369 -22.416098 1.977000 -0.000000 -58.511000
2.841957 16.690186 3.104500 -44.787341 -54.354193 42.187711 -14.476292 -3.955128 -1.582495 15.058460 -16.117288 -15.136692 0.635967 2.792930 44.688167 1.739832 9.113561 -18.897671 -1.837900 0.000000 -43.893000 2.895528 5.660914 -0.820017 5.447785 -12.700017 -132.452244 -2.359417 -9.473854 88.974717 -2.663722 -9.098407 -21.756986 2.081300 -0.000001 -56.381800
2.873733 16.662889 3.103136 -44.699883 -54.745194 42.395802 -14.504618 -4.037699 -1.749545 14.773924 -16.135851 -15.554790 0.608879 2.867589 45.258024 1.775945 9.374721 -19.102008 -1.917400 0.000000 -43.630400 2.987623 5.598623 -0.483014 4.470973 -13.053625 -130.488940 -1.378203 -9.005186 82.831564 -2.958293 -10.169483 -21.250550 2.122300 -0.000000 -54.350700
2.907979 16.638994 3.100904 -44.611834 -55.260244 42.646872 -14.510776 -4.131139 -1.960912 14.377694 -16.114765 -15.914395 0.579136 2.937907 45.736453 1.821408 9.696247 -19.263885 -2.003300 0.000001 -43.239600 3.118661 5.520279 -0.046770 3.266832 -13.340061 -128.127135 -0.333624 -8.401517 75.694657 -3.224879 -10.886486 -20.897775 2.098600 0.000000 -52.677600
2.944004 16.619764 3.098120 -44.526786 -55.904665 42.969122 -14.491971 -4.237795 -2.218867 13.875544 -16.044545 -16.233839 0.548040 3.000442 46.109207 1.876270 10.077143 -19.372930 -2.093300 -0.000000 -42.722500 3.291242 5.420881 0.531480 1.767655 -13.530304 -125.279667 0.745058 -7.597288 67.368077 -3.457975 -11.243868 -20.629230 2.005600 0.000000 -51.382100
2.980984 16.606239 3.095074 -44.443159 -56.647763 43.343736 -14.452001 -4.360935 -2.533210 13.289848 -15.908726 -16.480655 0.514604 3.054769 46.343020 1.934479 10.476567 -19.420071 -2.176900 0.000000 -42.110200 3.491083 5.305875 1.273976 -0.052944 -13.643878 -121.771015 1.794009 -6.488303 57.595036 -3.642512 -11.289219 -20.224385 1.811100 0.000000 -50.667400
3.017963 16.599306 3.092784 -44.398058 -57.405766 43.768418 -14.404094 -4.502506 -2.900633 12.703189 -15.717132 -16.615820 0.482211 3.102555 46.417532 1.989561 10.851976 -19.399164 -2.242700 -0.000000 -41.454900 3.680491 5.199069 2.177804 -2.231806 -13.725586 -117.251439 2.672574 -4.917811 45.983603 -3.774806 -11.261783 -19.282522 1.469000 -0.000000 -50.608300
3.053577 16.599454 3.091760 -44.457298 -58.026944 44.171654 -14.363871 -4.654872 -3.298967 12.231760 -15.490717 -16.517545 0.455960 3.146614 46.303140 2.031534 11.138397 -19.309863 -2.276600 0.000000 -40.828700 3.787809 5.172355 3.125270 -4.853451 -13.864914 -111.069012 3.071835 -2.752365 32.129824 -3.877006 -11.715286 -17.140162 0.895300 0.000000 -51.471800
3.084678 16.606596 3.090803 -44.603425 -58.262359 44.203487 -14.343476 -4.766281 -3.640120 11.958335 -15.362397 -15.895965 0.438460 3.194696 45.962845 2.052043 11.280696 -19.164398 -2.270900 0.000000 -40.273300 3.728081 5.349833 3.718847 -7.955817 -14.193180 -102.487256 2.588422 -0.282840 16.499700 -3.984376 -13.351950 -13.173579 -0.073500 0.000000 -52.662400
3.105487 16.620170 3.085169 -44.471864 -57.956330 43.100251 -14.327337 -4.740641 -3.818264 11.660249 -15.677943 -14.291499 0.410486 3.261703 45.315720 2.064464 11.349744 -18.993444 -2.248899 -0.000000 -39.638400 3.530050 5.758985 3.458155 -10.937030 -14.718473 -92.257713 1.469952 1.493787 1.917163 -3.965448 -15.670551 -7.821902 -1.539400 0.000000 -53.117000
3.112364 16.640205 3.073819 -43.652044 -57.294938 40.573256 -14.264638 -4.555472 -3.840493 10.895137 -16.682935 -11.641083 0.345240 3.343524 44.305865 2.106927 11.557230 -18.801192 -2.252400 -0.000000 -38.674200 3.306952 6.224736 2.444960 -11.247196 -15.563692 -84.093110 0.940773 2.141163 -7.893446 -3.326613 -15.151889 -3.145379 -2.593399 0.000000 -53.174500
3.108401 16.666653 3.064702 -42.636459 -56.699779 37.933298 -14.196373 -4.363672 -3.877306 9.897025 -17.856977 -8.781302 0.249383 3.430445 43.048592 2.168561 11.838091 -18.537218 -2.249500 0.000000 -37.622100 3.169579 6.471871 1.650890 -9.229675 -16.743405 -83.643203 1.477681 1.761220 -5.323982 -1.536864 -10.940920 -4.482038 -2.503900 -0.000001 -54.613400
3.093704 16.698986 3.059759 -41.934672 -56.199277 35.800958 -14.123555 -4.161242 -3.819235 9.074263 -18.722634 -6.254906 0.167816 3.475565 41.708572 2.213705 12.007941 -18.179370 -2.201600 0.000000 -36.815700 3.050645 6.620959 0.985344 -6.618175 -17.879209 -84.297849 2.195693 1.293453 -1.217820 -0.462331 -6.343430 -6.194817 -1.867700 -0.000000 -57.037500
3.067493 16.736398 3.057082 -41.440916 -55.857545 34.187339 -14.035370 -3.953060 -3.670237 8.438376 -19.217998 -4.264880 0.109309 3.465493 40.372074 2.235859 12.053985 -17.756723 -2.116899 0.000000 -36.243900 3.036050 6.707177 0.533952 -5.112864 -18.623023 -83.631358 2.620956 0.966871 1.397148 -0.110828 -3.556400 -7.062543 -1.357201 0.000000 -59.530000
3.031201 16.777862 3.056527 -40.997821 -55.704958 32.994317 -13.932050 -3.748114 -3.461662 7.918400 -19.419337 -2.832720 0.071839 3.405540 39.080153 2.241329 12.027803 -17.299353 -2.014500 0.000000 -35.815400 3.192059 6.741258 0.367801 -5.390348 -18.742542 -81.440669 2.653194 0.773929 2.750628 -0.009209 -3.270701 -7.341630 -1.342801 0.000000 -61.784000
2.987663 16.822218 3.058875 -40.596042 -55.729657 32.167964 -13.823523 -3.542933 -3.202259 7.503986 -19.392305 -1.896880 0.054590 3.306279 37.852359 2.235335 11.965049 -16.825874 -1.905600 -0.000000 -35.487600 3.506212 6.719241 0.441910 -7.149665 -18.084665 -77.810969 2.346969 0.711734 2.829615 0.032850 -5.271923 -6.920217 -1.879499 0.000000 -63.547900
2.939941 16.868087 3.065271 -40.374632 -55.901133 31.745476 -13.735091 -3.331710 -2.898160 7.279322 -19.145915 -1.361362 0.058261 3.182955 36.692699 2.215966 11.850739 -16.348710 -1.790600 -0.000000 -35.278200 3.917444 6.616277 0.669182 -9.679665 -16.563536 -73.065536 1.822326 0.762007 1.697399 -0.097283 -9.007474 -5.610486 -2.860400 0.000000 -64.593700
2.891014 16.914092 3.076757 -40.507650 -56.167213 31.746669 -13.692741 -3.104474 -2.551744 7.331632 -18.690990 -1.066516 0.083051 3.051536 35.582080 2.180828 11.660685 -15.872996 -1.667500 0.000000 -35.215100 4.340637 6.413941 0.912439 -11.917082 -14.381972 -67.652859 1.273832 0.904342 -0.645336 -0.681370 -13.456633 -3.057547 -4.019400 0.000000 -64.976700
2.843012 16.958883 3.093457 -41.034540 -56.450129 32.023918 -13.704590 -2.848022 -2.162577 7.626673 -18.125581 -0.751748 0.123801 2.925998 34.468450 2.137358 11.423588 -15.400784 -1.540799 0.000000 -35.255400 4.713665 6.135913 0.987121 -12.731204 -12.206154 -61.922626 0.930049 1.112620 -4.283767 -1.943374 -17.140068 1.226628 -4.956199 -0.000000 -65.084300
2.795776 17.000913 3.112924 -41.725613 -56.676626 32.252451 -13.745412 -2.572914 -1.770631 7.951713 -17.659185 -0.125542 0.165306 2.815455 33.274964 2.104993 11.235917 -14.938942 -1.423301 0.000000 -35.250101 5.010387 5.841793 0.850766 -11.777185 -10.829122 -57.832443 0.979566 1.132517 -5.502331 -3.159625 -18.675120 5.201876 -5.320300 -0.000000 -65.217400
2.747431 17.038752 3.130059 -42.279708 -56.818982 32.144926 -13.772227 -2.304456 -1.432912 8.083307 -17.444791 0.976301 0.190506 2.722840 31.947420 2.098207 11.171477 -14.495935 -1.323001 -0.000000 -35.075801 5.222838 5.578603 0.596061 -9.894150 -10.346894 -57.568695 1.363222 0.627513 0.755360 -3.099607 -18.220168 5.465055 -5.195401 -0.000000 -64.686300
2.697904 17.071968 3.142445 -42.695719 -56.952205 31.684395 -13.786301 -2.015496 -1.115703 8.025770 -17.376975 2.476930 0.194340 2.652404 30.501335 2.108990 11.193098 -14.067865 -1.232100 0.000000 -34.764100 5.459115 5.307770 0.127304 -7.822960 -10.307684 -56.815950 1.703349 0.059596 6.669201 -2.906222 -17.285448 6.268484 -5.041699 -0.000000 -63.356200
